# xmcd
#
# Track frame offsets:
#	150
#	12304
#	27750
#	44152
#	61601
#	79412
#	96683
#	112921
#	128073
#	137705
#	151501
#	164591
#	177603
#	192941
#	206263
#	220016
#	235134
#	250576
#	266113
#	284177
#	314714
#
# Disc length: 4360 seconds
#
# Revision: 0
# Processed by: cddbd v1.4PL0 Copyright (c) Steve Scherf et al.
# Submitted via: audiograbber 1.80
#
DISCID=36110615
DTITLE=Various Artist - Hott Country 031
DYEAR=1900
DGENRE=
TTITLE0=Scooter Lee - Dizzy
TTITLE1=Rick Tippe - She Made Me An Offer
TTITLE2=Brooks and Dunn - How Long  Gone
TTITLE3=Reba McEntire - Forever Love
TTITLE4=Alan Jackson - I'll Go On Loving You
TTITLE5=Linda Davis - I Wanna Remember You
TTITLE6=Mark WIlls - Don't Laugh At Me
TTITLE7=Tracy Byrd - I Wanna Feel That Way Again
TTITLE8=Steve Wariner/GArth Brooks - Burnin' The Roadhouse Down
TTITLE9=Mindy McCready - The Other Side Of This Kiss
TTITLE10=Sara Evans - Cryin' Game
TTITLE11=George Fox - Do The Math
TTITLE12=Don Neilson - You Don't Look Like You Love
TTITLE13=Alabama - How Do You Fall In Love
TTITLE14=Tracy Lawrence - While You Sleep
TTITLE15=Kinleys - You Make It All Seem So Easy
TTITLE16=Keith Harding - Coming Back To You
TTITLE17=Daryle Singletary - My Baby's Lovin'
TTITLE18=Duane Steele - If You Could Read My Mind
TTITLE19=Julian Austin - Hard Time Loving You
TTITLE20=Data - Data Track
EXTD=
EXTT0=
EXTT1=
EXTT2=
EXTT3=
EXTT4=
EXTT5=
EXTT6=
EXTT7=
EXTT8=
EXTT9=
EXTT10=
EXTT11=
EXTT12=
EXTT13=
EXTT14=
EXTT15=
EXTT16=
EXTT17=
EXTT18=
EXTT19=
EXTT20=
PLAYORDER=
